<svg width="115" height="60" viewBox="0 0 115 60" fill="none" xmlns="http://www.w3.org/2000/svg">
<path d="M4.17572 36.9864C4.28377 37.7402 4.33544 38.3147 4.39839 38.9251C4.51834 39.9902 4.58787 41.0317 4.65739 42.0733C4.68057 42.4204 4.61417 42.7564 4.53648 43.0566C4.4588 43.3567 4.22984 43.5863 3.89407 43.6132C3.51916 43.6523 3.21659 43.5112 3.07595 43.201C2.95788 42.9624 2.87894 42.7116 2.81129 42.4965C2.25098 39.7582 1.89771 36.9942 1.95849 34.1786C1.95787 33.9031 1.9964 33.6153 2.07408 33.3152C2.22412 32.8347 2.55393 32.6522 3.0914 32.7194C3.39929 32.7407 3.66804 32.7743 4.0038 32.7474C5.92883 32.575 7.84259 32.3668 9.76761 32.1944C10.0138 32.1563 10.2825 32.19 10.5121 32.2359C10.8704 32.2807 11.106 32.4823 11.2075 32.8048C11.2698 33.1397 11.153 33.4522 10.8231 33.6347C10.5325 33.8049 10.1522 33.9639 9.82773 34.0266C8.60806 34.2528 7.32669 34.4196 6.09575 34.61C5.88872 34.6357 5.69296 34.6973 5.36847 34.76C5.70486 35.0087 5.88997 35.1867 6.11423 35.3525C12.0459 39.7094 18.8244 42.3818 26.4334 43.454C32.682 44.442 39.0012 44.4232 45.3184 43.5779C50.9754 42.8222 56.5588 41.6958 62.0175 39.8996C69.8646 37.3521 77.3235 33.9813 84.1529 29.4301C90.6638 25.0973 96.1708 19.8988 100.427 13.597C102.837 10.0424 104.586 6.30181 105.652 2.30363C105.702 2.05165 105.79 1.78734 105.93 1.54656C106.209 1.06499 106.891 1.0471 107.128 1.52421C107.257 1.7986 107.358 2.12115 107.32 2.40898C107.249 3.1403 107.178 3.87163 106.967 4.56823C106.196 7.72533 104.764 10.6965 102.991 13.5388C99.427 19.3076 94.7196 24.1758 89.3056 28.4392C85.3444 31.576 81.0627 34.1047 76.5621 36.3477C71.5471 38.8708 66.3856 40.9279 60.9993 42.5438C57.1902 43.7028 53.3189 44.5269 49.4024 45.2076C44.5404 46.0284 39.6943 46.4896 34.7687 46.4244C28.841 46.32 23.0184 45.5918 17.4619 43.7952C12.9081 42.3133 8.71669 40.2054 4.88765 37.4714C4.7251 37.365 4.51212 37.2351 4.17572 36.9864Z" fill="#333333"/>
</svg>
