<svg width="115" height="60" viewBox="0 0 115 60" fill="none" xmlns="http://www.w3.org/2000/svg">
<path d="M110.566 22.2193C110.458 21.4655 110.407 20.891 110.344 20.2806C110.224 19.2155 110.154 18.174 110.085 17.1324C110.061 16.7852 110.128 16.4493 110.205 16.1491C110.283 15.849 110.512 15.6194 110.848 15.5925C111.223 15.5534 111.525 15.6945 111.666 16.0047C111.784 16.2433 111.863 16.4941 111.931 16.7092C112.491 19.4475 112.844 22.2115 112.783 25.0271C112.784 25.3026 112.746 25.5904 112.668 25.8905C112.518 26.371 112.188 26.5535 111.651 26.4863C111.343 26.465 111.074 26.4314 110.738 26.4583C108.813 26.6307 106.899 26.8389 104.974 27.0113C104.728 27.0494 104.459 27.0157 104.23 26.9698C103.872 26.925 103.636 26.7234 103.534 26.4009C103.472 26.066 103.589 25.7535 103.919 25.571C104.209 25.4008 104.59 25.2418 104.914 25.179C106.134 24.9529 107.415 24.786 108.646 24.5957C108.853 24.57 109.049 24.5084 109.373 24.4457C109.037 24.197 108.852 24.0189 108.628 23.8532C102.696 19.4963 95.9175 16.8239 88.3086 15.7517C82.0599 14.7637 75.7408 14.7825 69.4235 15.6278C63.7665 16.3835 58.1831 17.5099 52.7244 19.3061C44.8774 21.8536 37.4184 25.2244 30.589 29.7756C24.0782 34.1084 18.5711 39.3069 14.3148 45.6087C11.9049 49.1633 10.1558 52.9039 9.09024 56.9021C9.04044 57.154 8.95148 57.4184 8.8121 57.6591C8.53333 58.1407 7.85052 58.1586 7.61436 57.6815C7.48501 57.4071 7.38353 57.0845 7.42206 56.7967C7.49316 56.0654 7.56427 55.3341 7.77538 54.6375C8.54624 51.4804 9.97798 48.5092 11.7514 45.6668C15.315 39.8981 20.0223 35.0299 25.4363 30.7665C29.3976 27.6297 33.6793 25.101 38.1799 22.858C43.1948 20.3349 48.3563 18.2778 53.7427 16.6619C57.5517 15.5029 61.4231 14.6788 65.3395 13.9981C70.2016 13.1773 75.0477 12.7161 79.9733 12.7813C85.9009 12.8857 91.7236 13.6139 97.28 15.4105C101.834 16.8924 106.025 19.0003 109.854 21.7343C110.017 21.8407 110.23 21.9706 110.566 22.2193Z" fill="#333333"/>
</svg>
